<?xml version="1.0" encoding="utf-8"?>
<!-- Generator: Adobe Illustrator 26.5.0, SVG Export Plug-In . SVG Version: 6.00 Build 0)  -->
<svg version="1.0" id="katman_1" xmlns="http://www.w3.org/2000/svg" xmlns:xlink="http://www.w3.org/1999/xlink" x="0px" y="0px"
	 viewBox="0 0 1190.55 841.89" style="enable-background:new 0 0 1190.55 841.89;" xml:space="preserve">
<style type="text/css">
	.st0{fill:#03529D;}
	.st1{fill:#F3B32F;}
</style>
<g id="melhorenvio">
	<path class="st0" d="M876.18,268.65v26.62c-14.7,0-26.62,11.92-26.62,26.62v82.46h-26.62v-82.46
		C822.94,292.48,846.77,268.65,876.18,268.65"/>
	<path class="st0" d="M250.01,268.65c-15.91,0-30.17,6.99-39.93,18.05c-9.76-11.06-24.02-18.05-39.94-18.05
		c-29.4,0-53.24,23.84-53.24,53.25v82.46h26.62v-82.46c0-14.7,11.92-26.62,26.62-26.62c14.7,0,26.62,11.92,26.62,26.62v82.46h26.62
		v-82.46c0-14.7,11.92-26.62,26.62-26.62c14.7,0,26.62,11.92,26.62,26.62v82.46h26.62v-82.46
		C303.25,292.48,279.41,268.65,250.01,268.65"/>
	<path class="st0" d="M527.05,404.35v-26.62c-14.7,0-26.62-11.92-26.62-26.62V200.8h-26.62v150.31
		C473.81,380.52,497.64,404.35,527.05,404.35"/>
	<path class="st0" d="M598.04,268.65c-9.7,0-18.79,2.61-26.62,7.14v-74.67H544.8v120.77v82.46h26.62v-82.46
		c0-14.7,11.92-26.62,26.62-26.62c14.7,0,26.62,11.92,26.62,26.62v82.46h26.62v-82.46C651.29,292.48,627.45,268.65,598.04,268.65"/>
	<path class="st0" d="M454.73,323.45c-6.21-30.89-33.49-54.16-66.2-54.16s-60,23.26-66.2,54.16c-0.86,4.33-1.32,8.79-1.32,13.37
		c0,4.58,0.46,9.06,1.32,13.38c6.21,30.89,33.49,54.15,66.2,54.15c22.27,0,42.01-10.78,54.31-27.4l-21.39-15.8
		c-7.45,10.07-19.42,16.6-32.92,16.6c-17.92,0-33.16-11.51-38.7-27.55h104.9c0.86-4.32,1.32-8.79,1.32-13.38
		C456.05,332.25,455.59,327.78,454.73,323.45 M388.53,295.89c17.92,0,33.16,11.52,38.7,27.56h-77.4
		C355.37,307.42,370.61,295.89,388.53,295.89"/>
	<path class="st0" d="M737.33,268.65c-37.48,0-67.85,30.38-67.85,67.85c0,37.48,30.38,67.85,67.85,67.85s67.85-30.38,67.85-67.85
		C805.18,299.03,774.81,268.65,737.33,268.65 M737.33,377.76c-22.78,0-41.26-18.47-41.26-41.26c0-22.78,18.48-41.26,41.26-41.26
		c22.79,0,41.26,18.48,41.26,41.26C778.59,359.29,760.12,377.76,737.33,377.76"/>
	<rect x="821.86" y="432.17" class="st0" width="26.62" height="135.05"/>
	<path class="st0" d="M525.97,486.71c-6.17-30.74-33.32-53.89-65.88-53.89s-59.7,23.16-65.88,53.89c-0.87,4.3-1.32,8.75-1.32,13.31
		c0,4.56,0.45,9.01,1.32,13.31c6.18,30.74,33.32,53.89,65.88,53.89c22.16,0,41.81-10.73,54.05-27.27l-21.28-15.73
		c-7.41,10.03-19.33,16.52-32.76,16.52c-17.83,0-33-11.46-38.51-27.42h104.39c0.87-4.3,1.32-8.75,1.32-13.31
		C527.29,495.46,526.84,491.01,525.97,486.71 M460.09,459.28c17.83,0,33,11.47,38.51,27.43h-77.02
		C427.09,470.75,442.26,459.28,460.09,459.28"/>
	<path class="st0" d="M598.04,431.51c-29.41,0-53.25,23.83-53.25,53.25v82.46h26.62v-82.46c0-14.7,11.92-26.62,26.62-26.62
		c14.7,0,26.62,11.92,26.62,26.62v82.46h26.62v-82.46C651.29,455.35,627.45,431.51,598.04,431.51"/>
	<path class="st0" d="M934.13,431.51c-37.47,0-67.85,30.38-67.85,67.85c0,37.48,30.38,67.85,67.85,67.85
		c37.48,0,67.85-30.38,67.85-67.85C1001.98,461.89,971.61,431.51,934.13,431.51 M934.13,540.63c-22.78,0-41.26-18.47-41.26-41.26
		c0-22.78,18.48-41.26,41.26-41.26c22.79,0,41.26,18.48,41.26,41.26C975.39,522.15,956.92,540.63,934.13,540.63"/>
	<polygon class="st0" points="775.81,433.19 737.34,529.84 698.86,433.19 669.47,433.19 725.39,567.22 749.29,567.22 805.18,433.19 
			"/>
	<path class="st0" d="M876.18,268.65v26.62c-14.7,0-26.62,11.92-26.62,26.62v82.46h-26.62v-82.46
		C822.94,292.48,846.77,268.65,876.18,268.65"/>
	<path class="st1" d="M1072.86,429.49l-0.01-0.12c-0.61-7.84-3.48-15.34-8.54-22.31l-0.18-0.24
		c-14.19-18.55-37.47-20.22-58.87-20.73c10.25-15.01,23.66-36.55,24.12-64.27c0.48-19.6-5.53-36.66-16.93-48.06
		c-4.09-4.08-9.35-7.67-14.82-10.1c-5.54-2.47-11.15-3.68-17.13-3.73c-11.7-0.52-23.39,4.19-32.14,12.94
		c-9.03,9.03-11.83,19.7-14.31,29.13l-0.09,0.36c-0.01,0.05-0.03,0.11-0.03,0.16c-1.64,7.05-4.77,13.66-9.11,19.45l-6.27,8.35
		l-2.02,2.42l-0.39,0.5c-0.42,0.56-0.92,1.14-1.49,1.81c-0.67,0.77-1.4,1.64-2.2,2.66c-5,5.71-11.05,12.34-18.09,18.5l-0.22,0.19
		c-6.81,6.24-14.29,12.61-20.84,17.97v18.22v11.78c0,0,26.47-19.59,37.45-29.64c8.21-7.2,15.01-14.68,20.59-21.04l0.58-0.72
		c0.43-0.57,0.92-1.15,1.5-1.81c0.69-0.81,1.46-1.71,2.29-2.8l2.03-2.44l8.55-11.59c4.83-6.54,8.44-13.9,10.59-21.74
		c0.4-1.44,0.77-2.93,1.13-4.47c1.91-7.24,3.57-13.49,7.83-17.75c0.96-0.96,2.29-1.8,3.76-2.51c2.87-1.4,9.68-3.01,15.53-1.82
		c5.06,1.03,9.39,4.77,9.84,5.21c6.48,6.48,10.01,17.42,9.7,30.01l0,0.11c-0.36,22.59-13.02,40.94-22.27,54.34l-1.1,1.59
		c-4.06,5.25-6.92,9.91-9.26,15.06l-7.31,16.08l17.61,1.36c3.12,0.24,6.18,0.36,9.13,0.47c2.85,0.11,5.53,0.21,8.18,0.42l0.69,0.03
		c19.36,0.4,36.09,0.75,44.05,11.01c2.29,3.19,3.54,6.29,3.79,9.47c0.33,5-0.33,9.84-1.94,14.41c-3.3,8.85-4.11,18.82-2.37,28.87
		c0.67,4.42,0.67,8.85,0.01,12.84l-0.03,0.2c-0.91,6.05-3.71,12.24-8.32,18.39c-1.49,1.99-3.59,5.16-5.14,9.04l-0.25,0.68
		c-1.27,3.8-1.96,8.19-1.96,12.34c0,3.94-1.91,9.71-3.61,14.08c-1.61,4.15-3.82,8.04-6.54,11.55c-2.24,2.9-5.06,6.2-7.31,7.81
		l-0.54,0.4c-2.26,1.81-5.31,4.6-7.69,8.03l-0.45,0.45l-0.7,1.07c-8.94,13.69-14.44,22.11-22.77,29.02
		c-6.91,5.74-15.11,9.7-23.84,11.86c-2.65,0.66-5.24,1.21-7.76,1.57c-6.41,0.86-12.46,1.66-18.28,1.66
		c-21.38,0-42.47-2.56-62.7-7.62l-0.19-0.05c-11.26-2.63-26.21-5.84-42.01-7.37l-10.6-0.06l-418.32,0.02c-2.56,0-2.67,3.8-0.11,3.95
		l427.23,20.76c14.11,1.41,27.74,4.34,38.1,6.76c22.16,5.53,45.24,8.34,68.6,8.34c7.48,0,14.66-0.96,21.61-1.88l0.11-0.02
		c3.48-0.5,9.83-2.08,14.95-3.43c6.15-1.63,12.04-4.09,17.49-7.37c18.34-11.02,26.52-23.21,38.5-41.55l1.4-1.92
		c0.27-0.44,1.19-1.53,2.67-2.74c7.32-5.3,13.29-12.14,17.77-20.35c6.37-9.77,9.73-21.16,9.73-32.98c0-1.34,0.22-2.94,0.59-4.17
		c0.43-0.97,1.1-2.08,1.82-3.05c7.08-9.44,11.44-19.34,12.98-29.46c1.1-6.64,1.1-13.59,0-20.68l-0.04-0.27
		c-1.01-5.71-0.59-11.44,1.18-16.15l0.07-0.18C1072.29,446.19,1073.42,437.94,1072.86,429.49"/>
</g>
</svg>
